<svg xmlns="http://www.w3.org/2000/svg" xmlns:xlink="http://www.w3.org/1999/xlink" version="1.1" x="0px" y="0px" viewBox="-256 347 99 123.75" style="enable-background:new -256 347 99 99;" xml:space="preserve"><g><path d="M-174.3,384.2l0-4.3l-3.9,1.9c-2.3,1.1-4.7,1.6-7.1,1.5v-10.1c0-11.7-9.5-21.3-21.3-21.3c-11.7,0-21.3,9.5-21.3,21.3v10.1   c-2.3,0-4.7-0.5-7.1-1.6l-3.6-1.6l-0.2,3.9c0,0.4-0.5,9.2,3,20.6c3.3,10.5,10.7,25.1,27.8,35.5l1.5,0.9l1.4-0.9   c16.1-10.4,23.6-25,27.1-35.4C-174.2,393.4-174.3,384.6-174.3,384.2z M-206.5,357.4c8.7,0,15.8,7.1,15.8,15.8v9.3   c-7.7-2.1-13.9-7.6-14-7.7l-1.9-1.7l-1.8,1.8c-0.1,0.1-6.1,5.8-13.9,7.8v-9.4C-222.3,364.5-215.2,357.4-206.5,357.4z M-183.2,403.1   c-4.5,13.3-12.3,23.9-23.4,31.4c-11.7-7.5-19.7-18.1-23.9-31.4c-2-6.2-2.6-11.7-2.8-15.1c5.9,1.5,12.3,0.6,18.7-2.5   c3.5-1.7,6.3-3.7,8-5.1c1.8,1.4,4.7,3.4,8.3,5.1c6.5,3.1,12.7,4,18.2,2.6C-180.3,391.6-181.1,397-183.2,403.1z"/><circle cx="-211.4" cy="415" r="2.9"/><circle cx="-199.8" cy="415" r="2.9"/><polygon points="-197.2,395.9 -209.7,395.9 -209.7,401.3 -200,401.3 -201.6,404.9 -209.8,404.9 -212.9,395.9 -221.8,395.9    -221.8,401.3 -216.8,401.3 -213.7,410.4 -198,410.4 -194.1,401.5 -194.1,395.9 -197.2,395.9  "/></g><text x="-256" y="461" fill="#000000" font-size="5px" font-weight="bold" font-family="'Helvetica Neue', Helvetica, Arial-Unicode, Arial, Sans-serif">Created by Advan Shumiski</text><text x="-256" y="466" fill="#000000" font-size="5px" font-weight="bold" font-family="'Helvetica Neue', Helvetica, Arial-Unicode, Arial, Sans-serif">from the Noun Project</text></svg>