<svg xmlns="http://www.w3.org/2000/svg" xmlns:xlink="http://www.w3.org/1999/xlink" version="1.1" x="0px" y="0px" viewBox="0 0 100 125" enable-background="new 0 0 100 100" xml:space="preserve"><path d="M69.717,39.081c-0.126-0.008-0.243-0.038-0.369-0.038c-2.096,0-3.901,1.187-4.838,2.913h5.464L69.717,39.081z"/><path d="M67.41,13.306H53.958C53.662,6.462,48.037,1,41.121,1c-6.916,0-12.542,5.462-12.837,12.306H13.712L7,88.311h36.563  l4.149-46.354h10.323c1.174-5.101,5.697-8.915,11.135-8.998L67.41,13.306z M29.933,22.255c-0.926,0-1.678-0.751-1.678-1.678  c0-0.926,0.752-1.678,1.678-1.678c0.927,0,1.678,0.752,1.678,1.678C31.611,21.504,30.86,22.255,29.933,22.255z M30.487,13.306  c0.293-5.619,4.943-10.103,10.633-10.103s10.34,4.484,10.633,10.103H30.487z M52.308,22.255c-0.927,0-1.678-0.751-1.678-1.678  c0-0.926,0.751-1.678,1.678-1.678s1.679,0.752,1.679,1.678C53.986,21.504,53.234,22.255,52.308,22.255z"/><path d="M88.587,44.159h-9.844c-0.217-5.009-4.334-9.006-9.396-9.006c-5.063,0-9.179,3.998-9.396,9.006H49.289l-4.913,54.892H93.5  L88.587,44.159z M69.348,37.356c3.84,0,6.978,3.017,7.192,6.803H62.155C62.37,40.373,65.508,37.356,69.348,37.356z M61.161,50.708  c-0.679,0-1.229-0.549-1.229-1.227c0-0.678,0.551-1.229,1.229-1.229s1.227,0.55,1.227,1.229  C62.388,50.159,61.84,50.708,61.161,50.708z M77.535,50.708c-0.68,0-1.229-0.549-1.229-1.227c0-0.678,0.55-1.229,1.229-1.229  s1.229,0.55,1.229,1.229C78.764,50.159,78.215,50.708,77.535,50.708z"/><text x="0" y="115" fill="#000000" font-size="5px" font-weight="bold" font-family="'Helvetica Neue', Helvetica, Arial-Unicode, Arial, Sans-serif">Created by Agus Purwanto</text><text x="0" y="120" fill="#000000" font-size="5px" font-weight="bold" font-family="'Helvetica Neue', Helvetica, Arial-Unicode, Arial, Sans-serif">from the Noun Project</text></svg>