<svg xmlns="http://www.w3.org/2000/svg" xmlns:xlink="http://www.w3.org/1999/xlink" version="1.1" x="0px" y="0px" viewBox="0 0 90 112.5" enable-background="new 0 0 90 90" xml:space="preserve"><path d="M48.961,28.5c0,2.281-1.844,4.125-4.125,4.125c-2.277,0-4.125-1.844-4.125-4.125c0-2.277,1.848-4.125,4.125-4.125  C47.117,24.375,48.961,26.223,48.961,28.5z"/><path d="M48.961,45c0,2.281-1.844,4.125-4.125,4.125c-2.277,0-4.125-1.844-4.125-4.125c0-2.277,1.848-4.125,4.125-4.125  C47.117,40.875,48.961,42.723,48.961,45z"/><path d="M48.961,61.5c0,2.281-1.844,4.125-4.125,4.125c-2.277,0-4.125-1.844-4.125-4.125c0-2.277,1.848-4.125,4.125-4.125  C47.117,57.375,48.961,59.223,48.961,61.5z"/><path d="M28.336,40.875c2.281,0,4.125,1.84,4.125,4.125c0,2.277-1.844,4.125-4.125,4.125c-2.277,0-4.125-1.848-4.125-4.125  C24.211,42.715,26.059,40.875,28.336,40.875z"/><path d="M61.336,40.875c2.277,0,4.125,1.84,4.125,4.125c0,2.277-1.848,4.125-4.125,4.125S57.211,47.277,57.211,45  C57.211,42.715,59.059,40.875,61.336,40.875z"/><path d="M48.961,12c0,2.281-1.844,4.125-4.125,4.125c-2.277,0-4.125-1.844-4.125-4.125c0-2.277,1.848-4.125,4.125-4.125  C47.117,7.875,48.961,9.723,48.961,12z"/><path d="M48.961,78c0,2.281-1.844,4.125-4.125,4.125c-2.277,0-4.125-1.844-4.125-4.125c0-2.277,1.848-4.125,4.125-4.125  C47.117,73.875,48.961,75.723,48.961,78z"/><path d="M11.836,40.875c2.281,0,4.125,1.84,4.125,4.125c0,2.277-1.844,4.125-4.125,4.125c-2.277,0-4.125-1.848-4.125-4.125  C7.711,42.715,9.559,40.875,11.836,40.875z"/><path d="M77.836,40.875c2.277,0,4.125,1.84,4.125,4.125c0,2.277-1.848,4.125-4.125,4.125S73.711,47.277,73.711,45  C73.711,42.715,75.559,40.875,77.836,40.875z"/><text x="0" y="105" fill="#000000" font-size="5px" font-weight="bold" font-family="'Helvetica Neue', Helvetica, Arial-Unicode, Arial, Sans-serif">Created by Lia </text><text x="0" y="110" fill="#000000" font-size="5px" font-weight="bold" font-family="'Helvetica Neue', Helvetica, Arial-Unicode, Arial, Sans-serif">from the Noun Project</text></svg>